<mxfile host="app.diagrams.net" modified="2023-11-23T10:13:18.690Z" agent="Mozilla/5.0 (Windows NT 10.0; WOW64) AppleWebKit/537.36 (KHTML, like Gecko) Chrome/106.0.0.0 Atom/26.0.0.0 Safari/537.36" etag="XhHCOPA-w994cTve3RSg" version="21.7.2" type="device">
  <diagram id="C5RBs43oDa-KdzZeNtuy" name="Page-1">
    <mxGraphModel dx="1010" dy="1731" grid="1" gridSize="10" guides="1" tooltips="1" connect="1" arrows="1" fold="1" page="1" pageScale="1" pageWidth="827" pageHeight="1169" math="0" shadow="0">
      <root>
        <mxCell id="WIyWlLk6GJQsqaUBKTNV-0" />
        <mxCell id="WIyWlLk6GJQsqaUBKTNV-1" parent="WIyWlLk6GJQsqaUBKTNV-0" />
        <mxCell id="jRRUrJasq7hxaQvsWjAL-3" value="" style="edgeStyle=orthogonalEdgeStyle;rounded=0;orthogonalLoop=1;jettySize=auto;html=1;" edge="1" parent="WIyWlLk6GJQsqaUBKTNV-1" source="jRRUrJasq7hxaQvsWjAL-0" target="jRRUrJasq7hxaQvsWjAL-2">
          <mxGeometry relative="1" as="geometry" />
        </mxCell>
        <mxCell id="jRRUrJasq7hxaQvsWjAL-0" value="start" style="ellipse;whiteSpace=wrap;html=1;" vertex="1" parent="WIyWlLk6GJQsqaUBKTNV-1">
          <mxGeometry x="340" y="-1160" width="120" height="30" as="geometry" />
        </mxCell>
        <mxCell id="jRRUrJasq7hxaQvsWjAL-5" value="" style="edgeStyle=orthogonalEdgeStyle;rounded=0;orthogonalLoop=1;jettySize=auto;html=1;" edge="1" parent="WIyWlLk6GJQsqaUBKTNV-1" source="jRRUrJasq7hxaQvsWjAL-2" target="jRRUrJasq7hxaQvsWjAL-4">
          <mxGeometry relative="1" as="geometry" />
        </mxCell>
        <mxCell id="jRRUrJasq7hxaQvsWjAL-2" value="StringArray&lt;br&gt;Size" style="shape=parallelogram;perimeter=parallelogramPerimeter;whiteSpace=wrap;html=1;fixedSize=1;" vertex="1" parent="WIyWlLk6GJQsqaUBKTNV-1">
          <mxGeometry x="340" y="-1090" width="120" height="40" as="geometry" />
        </mxCell>
        <mxCell id="jRRUrJasq7hxaQvsWjAL-7" value="" style="edgeStyle=orthogonalEdgeStyle;rounded=0;orthogonalLoop=1;jettySize=auto;html=1;" edge="1" parent="WIyWlLk6GJQsqaUBKTNV-1" source="jRRUrJasq7hxaQvsWjAL-4" target="jRRUrJasq7hxaQvsWjAL-6">
          <mxGeometry relative="1" as="geometry" />
        </mxCell>
        <mxCell id="jRRUrJasq7hxaQvsWjAL-4" value="SizeNew = 0" style="whiteSpace=wrap;html=1;" vertex="1" parent="WIyWlLk6GJQsqaUBKTNV-1">
          <mxGeometry x="340" y="-1020" width="120" height="30" as="geometry" />
        </mxCell>
        <mxCell id="jRRUrJasq7hxaQvsWjAL-9" value="" style="edgeStyle=orthogonalEdgeStyle;rounded=0;orthogonalLoop=1;jettySize=auto;html=1;" edge="1" parent="WIyWlLk6GJQsqaUBKTNV-1" source="jRRUrJasq7hxaQvsWjAL-6" target="jRRUrJasq7hxaQvsWjAL-8">
          <mxGeometry relative="1" as="geometry" />
        </mxCell>
        <mxCell id="jRRUrJasq7hxaQvsWjAL-13" style="edgeStyle=orthogonalEdgeStyle;rounded=0;orthogonalLoop=1;jettySize=auto;html=1;exitX=1;exitY=0.5;exitDx=0;exitDy=0;" edge="1" parent="WIyWlLk6GJQsqaUBKTNV-1" source="jRRUrJasq7hxaQvsWjAL-6" target="jRRUrJasq7hxaQvsWjAL-14">
          <mxGeometry relative="1" as="geometry">
            <mxPoint x="560" y="-640" as="targetPoint" />
            <Array as="points">
              <mxPoint x="560" y="-940" />
              <mxPoint x="560" y="-690" />
              <mxPoint x="400" y="-690" />
            </Array>
          </mxGeometry>
        </mxCell>
        <mxCell id="jRRUrJasq7hxaQvsWjAL-6" value="i = 0; i &amp;lt; Size; 1" style="shape=hexagon;perimeter=hexagonPerimeter2;whiteSpace=wrap;html=1;fixedSize=1;" vertex="1" parent="WIyWlLk6GJQsqaUBKTNV-1">
          <mxGeometry x="340" y="-960" width="120" height="40" as="geometry" />
        </mxCell>
        <mxCell id="jRRUrJasq7hxaQvsWjAL-11" value="" style="edgeStyle=orthogonalEdgeStyle;rounded=0;orthogonalLoop=1;jettySize=auto;html=1;" edge="1" parent="WIyWlLk6GJQsqaUBKTNV-1" source="jRRUrJasq7hxaQvsWjAL-8" target="jRRUrJasq7hxaQvsWjAL-10">
          <mxGeometry relative="1" as="geometry" />
        </mxCell>
        <mxCell id="jRRUrJasq7hxaQvsWjAL-8" value="StringArray[i].Length &amp;lt;= 3" style="rhombus;whiteSpace=wrap;html=1;" vertex="1" parent="WIyWlLk6GJQsqaUBKTNV-1">
          <mxGeometry x="280" y="-890" width="240" height="80" as="geometry" />
        </mxCell>
        <mxCell id="jRRUrJasq7hxaQvsWjAL-12" style="edgeStyle=orthogonalEdgeStyle;rounded=0;orthogonalLoop=1;jettySize=auto;html=1;exitX=0.5;exitY=1;exitDx=0;exitDy=0;entryX=0;entryY=0.5;entryDx=0;entryDy=0;" edge="1" parent="WIyWlLk6GJQsqaUBKTNV-1" source="jRRUrJasq7hxaQvsWjAL-10" target="jRRUrJasq7hxaQvsWjAL-6">
          <mxGeometry relative="1" as="geometry">
            <Array as="points">
              <mxPoint x="400" y="-720" />
              <mxPoint x="240" y="-720" />
              <mxPoint x="240" y="-940" />
            </Array>
          </mxGeometry>
        </mxCell>
        <mxCell id="jRRUrJasq7hxaQvsWjAL-10" value="SizeNew ++" style="whiteSpace=wrap;html=1;" vertex="1" parent="WIyWlLk6GJQsqaUBKTNV-1">
          <mxGeometry x="340" y="-780" width="120" height="40" as="geometry" />
        </mxCell>
        <mxCell id="jRRUrJasq7hxaQvsWjAL-16" value="" style="edgeStyle=orthogonalEdgeStyle;rounded=0;orthogonalLoop=1;jettySize=auto;html=1;" edge="1" parent="WIyWlLk6GJQsqaUBKTNV-1" source="jRRUrJasq7hxaQvsWjAL-14" target="jRRUrJasq7hxaQvsWjAL-15">
          <mxGeometry relative="1" as="geometry" />
        </mxCell>
        <mxCell id="jRRUrJasq7hxaQvsWjAL-14" value="StringArrayNew = null&lt;br&gt;index = 0" style="rounded=0;whiteSpace=wrap;html=1;" vertex="1" parent="WIyWlLk6GJQsqaUBKTNV-1">
          <mxGeometry x="330" y="-660" width="140" height="60" as="geometry" />
        </mxCell>
        <mxCell id="jRRUrJasq7hxaQvsWjAL-18" value="" style="edgeStyle=orthogonalEdgeStyle;rounded=0;orthogonalLoop=1;jettySize=auto;html=1;" edge="1" parent="WIyWlLk6GJQsqaUBKTNV-1" source="jRRUrJasq7hxaQvsWjAL-15" target="jRRUrJasq7hxaQvsWjAL-17">
          <mxGeometry relative="1" as="geometry" />
        </mxCell>
        <mxCell id="jRRUrJasq7hxaQvsWjAL-23" value="" style="edgeStyle=orthogonalEdgeStyle;rounded=0;orthogonalLoop=1;jettySize=auto;html=1;" edge="1" parent="WIyWlLk6GJQsqaUBKTNV-1" source="jRRUrJasq7hxaQvsWjAL-15" target="jRRUrJasq7hxaQvsWjAL-22">
          <mxGeometry relative="1" as="geometry" />
        </mxCell>
        <mxCell id="jRRUrJasq7hxaQvsWjAL-15" value="i = 0; i &amp;lt; Size; 1" style="shape=hexagon;perimeter=hexagonPerimeter2;whiteSpace=wrap;html=1;fixedSize=1;rounded=0;" vertex="1" parent="WIyWlLk6GJQsqaUBKTNV-1">
          <mxGeometry x="340" y="-560" width="120" height="40" as="geometry" />
        </mxCell>
        <mxCell id="jRRUrJasq7hxaQvsWjAL-20" value="" style="edgeStyle=orthogonalEdgeStyle;rounded=0;orthogonalLoop=1;jettySize=auto;html=1;" edge="1" parent="WIyWlLk6GJQsqaUBKTNV-1" source="jRRUrJasq7hxaQvsWjAL-17" target="jRRUrJasq7hxaQvsWjAL-19">
          <mxGeometry relative="1" as="geometry" />
        </mxCell>
        <mxCell id="jRRUrJasq7hxaQvsWjAL-17" value="StringArray[i].Length &amp;lt;= 3" style="rhombus;whiteSpace=wrap;html=1;" vertex="1" parent="WIyWlLk6GJQsqaUBKTNV-1">
          <mxGeometry x="280" y="-480" width="240" height="80" as="geometry" />
        </mxCell>
        <mxCell id="jRRUrJasq7hxaQvsWjAL-21" style="edgeStyle=orthogonalEdgeStyle;rounded=0;orthogonalLoop=1;jettySize=auto;html=1;exitX=0.5;exitY=1;exitDx=0;exitDy=0;entryX=0;entryY=0.5;entryDx=0;entryDy=0;" edge="1" parent="WIyWlLk6GJQsqaUBKTNV-1" source="jRRUrJasq7hxaQvsWjAL-19" target="jRRUrJasq7hxaQvsWjAL-15">
          <mxGeometry relative="1" as="geometry">
            <Array as="points">
              <mxPoint x="400" y="-280" />
              <mxPoint x="240" y="-280" />
              <mxPoint x="240" y="-540" />
            </Array>
          </mxGeometry>
        </mxCell>
        <mxCell id="jRRUrJasq7hxaQvsWjAL-19" value="StringArrayNew[index] = StringArray[i]&lt;br&gt;index++" style="whiteSpace=wrap;html=1;" vertex="1" parent="WIyWlLk6GJQsqaUBKTNV-1">
          <mxGeometry x="280" y="-360" width="240" height="60" as="geometry" />
        </mxCell>
        <mxCell id="jRRUrJasq7hxaQvsWjAL-25" style="edgeStyle=orthogonalEdgeStyle;rounded=0;orthogonalLoop=1;jettySize=auto;html=1;exitX=1;exitY=0.5;exitDx=0;exitDy=0;entryX=0;entryY=0.5;entryDx=0;entryDy=0;" edge="1" parent="WIyWlLk6GJQsqaUBKTNV-1" source="jRRUrJasq7hxaQvsWjAL-22" target="jRRUrJasq7hxaQvsWjAL-24">
          <mxGeometry relative="1" as="geometry" />
        </mxCell>
        <mxCell id="jRRUrJasq7hxaQvsWjAL-22" value="StringArrayNew" style="shape=document;whiteSpace=wrap;html=1;boundedLbl=1;rounded=0;" vertex="1" parent="WIyWlLk6GJQsqaUBKTNV-1">
          <mxGeometry x="540" y="-580" width="120" height="80" as="geometry" />
        </mxCell>
        <mxCell id="jRRUrJasq7hxaQvsWjAL-24" value="end" style="ellipse;whiteSpace=wrap;html=1;" vertex="1" parent="WIyWlLk6GJQsqaUBKTNV-1">
          <mxGeometry x="700" y="-557" width="100" height="34" as="geometry" />
        </mxCell>
      </root>
    </mxGraphModel>
  </diagram>
</mxfile>
